#!OML:ASF E:\emotionWalksFemale\Project 1\Capture day 1\Session 1\Female1.ASF
:FULLY-SPECIFIED
:DEGREES
560
root 10.564 13.9068 7.66441 -341.215 -82.0703 -1.13017
lowerback 25.7171 -0.622697 0.212144
upperback -4.10616 -0.859609 -0.475198
thorax -18.762 -0.424784 -0.30335
lowerneck -9.96239 -4.57046 -7.34271
upperneck -18.7253 -5.74724 6.93999
head -3.59593 -3.03127 3.38708
rclavicle 2.69353e-014 1.11319e-014
rhumerus -46.2395 0.973483 -57.6697
rradius 32.2779
rwrist 13.8436
rhand 4.40849 -50.5973
rfingers 7.12502
rthumb 29.8056 -78.2196
lclavicle 2.69353e-014 1.11319e-014
lhumerus -49.638 13.7783 40.1422
lradius 36.0765
lwrist -6.08491
lhand 11.969 -36.3566
lfingers 7.12502
lthumb 36.9914 -10.29
rfemur -47.4371 4.26312 27.3741
rtibia 67.1688
rfoot -32.1555 -26.1475
rtoes -6.55147
lfemur -52.8014 -4.03488 -19.3012
ltibia 68.0422
lfoot -33.5294 8.84456
ltoes -18.661
561
root 10.5254 14.018 7.68387 -343.493 -82.5547 0.443241
lowerback 25.5425 -0.5181 0.0478244
upperback -4.11654 -0.76709 -0.44219
thorax -18.677 -0.365602 -0.213271
lowerneck -10.0806 -4.56917 -7.52781
upperneck -17.8717 -5.7111 6.76811
head -3.32215 -2.97737 3.33557
rclavicle -2.36057e-014 -4.96962e-015
rhumerus -47.0868 2.10793 -57.1104
rradius 32.31
rwrist 14.146
rhand 5.57964 -50.3288
rfingers 7.12502
rthumb 30.9227 -77.745
lclavicle -2.36057e-014 -4.96962e-015
lhumerus -50.3058 12.4915 40.0934
lradius 36.1384
lwrist -5.88092
lhand 12.5896 -35.7707
lfingers 7.12502
lthumb 37.5782 -9.8579
rfemur -45.5425 3.93901 27.0449
rtibia 65.3194
rfoot -31.5138 -25.4488
rtoes -6.96528
lfemur -50.7173 -3.76742 -19.7971
ltibia 66.1931
lfoot -32.9523 9.18237
ltoes -19.5463
562
root 10.4822 14.1396 7.70368 -345.681 -83.1219 1.91273
lowerback 25.2587 -0.417696 -0.130385
upperback -4.1085 -0.683619 -0.409867
thorax -18.5105 -0.309137 -0.112992
lowerneck -10.2931 -4.47831 -7.55731
upperneck -16.6351 -5.61358 6.28587
head -3.31492 -2.87499 3.43239
rclavicle 3.97569e-016 -1.39149e-015
rhumerus -47.8789 3.79513 -56.9669
rradius 32.3314
rwrist 14.1526
rhand 6.02365 -50.5646
rfingers 7.12502
rthumb 31.3459 -77.8996
lclavicle 3.97569e-016 -1.39149e-015
lhumerus -50.8118 11.1329 39.9691
lradius 35.9115
lwrist -5.86245
lhand 13.806 -35.7273
lfingers 7.12502
lthumb 38.7266 -10.1295
rfemur -43.5351 3.75299 26.7332
rtibia 63.3593
rfoot -30.7602 -25.0195
rtoes -8.07914
lfemur -48.5535 -3.44678 -20.2243
ltibia 64.3018
lfoot -32.5669 9.07906
ltoes -18.8285
563
root 10.44 14.2591 7.72048 -345.898 -83.5307 1.56688
lowerback 24.7673 -0.452812 -0.0934927
upperback -4.12596 -0.699068 -0.315839
thorax -18.2654 -0.313869 -0.0261714
lowerneck -10.2652 -4.2856 -7.47201
upperneck -15.9079 -5.35538 6.00515
head -3.08696 -2.73144 3.29613
rclavicle 3.62782e-015 2.45499e-014
rhumerus -48.5976 6.03727 -57.4002
rradius 32.4441
rwrist 13.8122
rhand 6.01048 -51.125
rfingers 7.12502
rthumb 31.3333 -78.4624
lclavicle 3.62782e-015 2.45499e-014
lhumerus -51.3272 9.98011 39.621
lradius 35.5202
lwrist -6.47272
lhand 15.3093 -36.2887
lfingers 7.12502
lthumb 40.1428 -11.1059
rfemur -41.6883 3.56612 26.6885
rtibia 61.3079
rfoot -30.0639 -24.4644
rtoes -8.59563
lfemur -46.6488 -3.23001 -20.2888
ltibia 62.4508
lfoot -32.2395 8.53143
ltoes -16.2993
564
root 10.4037 14.3598 7.73294 -343.92 -83.7392 -0.865142
lowerback 24.2468 -0.557806 0.117908
upperback -4.19317 -0.735226 -0.114355
thorax -18.0651 -0.338472 0.0898806
lowerneck -10.1164 -4.08434 -7.27078
upperneck -15.2514 -5.11371 5.60526
head -2.91061 -2.60098 3.10581
rclavicle 7.45443e-016 1.97791e-014
rhumerus -49.4642 8.73921 -58.3307
rradius 32.7232
rwrist 13.15
rhand 6.24987 -51.5984
rfingers 7.12502
rthumb 31.5614 -78.8914
lclavicle 7.45443e-016 1.97791e-014
lhumerus -52.0272 8.946 39.4424
lradius 35.288
lwrist -6.96742
lhand 16.4475 -36.3775
lfingers 7.12502
lthumb 41.2124 -11.529
rfemur -40.0071 3.20012 26.9734
rtibia 59.2006
rfoot -29.0629 -23.8581
rtoes -9.21673
lfemur -45.0552 -3.0434 -20.0636
ltibia 60.6791
lfoot -31.66 8.44859
ltoes -15.984
565
root 10.3628 14.457 7.74647 -341.667 -84.0125 -3.75012
lowerback 23.7838 -0.576655 0.510113
upperback -4.19527 -0.622113 -0.0145235
thorax -17.8179 -0.324493 -0.0658049
lowerneck -9.93543 -4.00451 -7.18631
upperneck -14.5932 -5.01504 5.31076
head -2.72576 -2.53823 2.97327
rclavicle 7.62836e-015 -1.31198e-014
rhumerus -50.516 10.877 -59.2239
rradius 32.9291
rwrist 12.841
rhand 6.53123 -51.8095
rfingers 7.12502
rthumb 31.8294 -79.0495
lclavicle 7.62836e-015 -1.31198e-014
lhumerus -52.5766 7.43028 39.7194
lradius 35.2582
lwrist -7.09645
lhand 16.84 -35.8197
lfingers 7.12502
lthumb 41.5807 -11.0908
rfemur -38.073 2.82257 27.2827
rtibia 57.0321
rfoot -28.011 -23.3099
rtoes -9.91619
lfemur -43.2363 -2.73489 -19.8739
ltibia 58.8872
lfoot -31.0211 8.56883
ltoes -16.5892
566
root 10.3106 14.5672 7.76147 -341.736 -84.5272 -4.51663
lowerback 23.4538 -0.498395 0.658819
upperback -3.84949 -0.473748 -0.00946876
thorax -17.8768 -0.276221 -0.208097
lowerneck -9.76765 -3.98909 -7.58564
upperneck -13.8646 -4.92931 5.40895
head -2.49767 -2.46697 3.06355
rclavicle 9.31803e-015 6.26172e-015
rhumerus -51.382 12.1928 -59.7123
rradius 32.8722
rwrist 13.2697
rhand 6.97442 -51.7419
rfingers 7.12502
rthumb 32.2513 -78.8971
lclavicle 9.31803e-015 6.26172e-015
lhumerus -53.1018 6.05437 40.0105
lradius 35.1281
lwrist -7.57178
lhand 16.9752 -35.2176
lfingers 7.12502
lthumb 41.7075 -10.5303
rfemur -35.8228 2.55479 27.2064
rtibia 54.8398
rfoot -27.4796 -22.569
rtoes -9.93496
lfemur -40.9553 -2.39635 -20.0072
ltibia 56.954
lfoot -30.5387 8.58808
ltoes -16.3868
567
root 10.2593 14.6818 7.77733 -343.442 -85.0393 -3.51241
lowerback 22.9716 -0.547444 0.476105
upperback -3.88395 -0.576125 0.113717
thorax -17.6215 -0.291976 0.0771732
lowerneck -9.49323 -3.79449 -8.17757
upperneck -13.0948 -4.59568 5.55157
head -2.29034 -2.26623 3.21562
rclavicle 5.92627e-015 -1.16786e-014
rhumerus -52.0749 14.2681 -60.4761
rradius 32.8437
rwrist 13.4653
rhand 7.55808 -51.5965
rfingers 7.12502
rthumb 32.8068 -78.6373
lclavicle 5.92627e-015 -1.16786e-014
lhumerus -54.2042 5.31967 40.0523
lradius 34.9878
lwrist -8.17058
lhand 17.7099 -34.8619
lfingers 7.12502
lthumb 42.396 -10.4059
rfemur -33.7406 2.26944 26.8827
rtibia 52.6691
rfoot -27.4018 -21.3147
rtoes -8.20906
lfemur -38.7244 -2.14192 -20.2964
ltibia 54.8695
lfoot -29.9228 8.90947
ltoes -18.1814
568
root 10.2097 14.7903 7.79724 -345.87 -85.4199 -1.74253
lowerback 22.4005 -0.48455 0.601977
upperback -3.83329 -0.49856 -0.124861
thorax -17.2115 -0.28975 -0.308346
lowerneck -9.5669 -3.77335 -7.725
upperneck -12.2144 -4.5759 5.33322
head -1.9909 -2.26246 3.02961
rclavicle 8.89561e-015 -1.46604e-014
rhumerus -53.2667 15.7764 -61.8763
rradius 32.918
rwrist 13.2228
rhand 8.4383 -51.3318
rfingers 7.12502
rthumb 33.6437 -78.1939
lclavicle 8.89561e-015 -1.46604e-014
lhumerus -54.2943 3.87205 40.2666
lradius 34.7645
lwrist -8.40957
lhand 18.9026 -34.7405
lfingers 7.12502
lthumb 43.5114 -10.6778
rfemur -31.756 1.82061 26.5701
rtibia 50.5207
rfoot -26.8202 -20.4558
rtoes -7.74575
lfemur -36.5378 -2.05792 -20.5944
ltibia 52.6885
lfoot -29.1752 9.20834
ltoes -19.7141
569
root 10.1586 14.8901 7.81381 -349.353 -85.8319 0.991558
lowerback 21.9605 -0.351005 0.536716
upperback -3.81108 -0.358967 -0.236964
thorax -16.9132 -0.229831 -0.454467
lowerneck -9.55321 -3.79519 -7.80561
upperneck -11.247 -4.56689 5.25993
head -1.66855 -2.2432 2.9953
rclavicle -6.54747e-015 -2.5842e-015
rhumerus -54.5447 17.4929 -63.1969
rradius 33.0738
rwrist 12.6243
rhand 9.47029 -51.1072
rfingers 7.12502
rthumb 34.6238 -77.7503
lclavicle -6.54747e-015 -2.5842e-015
lhumerus -54.611 2.50145 40.8541
lradius 34.5927
lwrist -8.71183
lhand 19.7797 -34.5852
lfingers 7.12502
lthumb 44.3298 -10.8264
rfemur -29.712 1.36108 26.2628
rtibia 48.3891
rfoot -25.6682 -20.1447
rtoes -9.66571
lfemur -34.2537 -1.99655 -20.9224
ltibia 50.4725
lfoot -28.4957 9.11471
ltoes -19.0433
570
root 10.1117 14.9886 7.82725 -351.204 -86.2453 2.2272
lowerback 21.5567 -0.250667 0.455549
upperback -3.95419 -0.253203 -0.266555
thorax -16.8411 -0.17731 -0.481022
lowerneck -9.2193 -3.71368 -7.86257
upperneck -10.2936 -4.44167 5.17596
head -1.41674 -2.16799 2.96687
rclavicle -5.15598e-015 -2.43511e-015
rhumerus -55.8129 18.8349 -64.2907
rradius 33.1574
rwrist 12.4612
rhand 10.111 -50.8502
rfingers 7.12502
rthumb 35.2316 -77.3519
lclavicle -5.15598e-015 -2.43511e-015
lhumerus -55.3711 1.61356 41.2115
lradius 34.5623
lwrist -9.49202
lhand 20.0643 -34.0231
lfingers 7.12502
lthumb 44.595 -10.3658
rfemur -27.8226 1.02031 26.0939
rtibia 46.2409
rfoot -24.855 -19.3066
rtoes -9.11035
lfemur -32.1624 -1.91492 -21.0627
ltibia 48.2693
lfoot -27.8393 8.81539
ltoes -17.4761
